<?xml version="1.0" encoding="utf-8"?>
<!-- Generator: Adobe Illustrator 22.0.0, SVG Export Plug-In . SVG Version: 6.00 Build 0)  -->
<svg version="1.1" id="Слой_5" xmlns="http://www.w3.org/2000/svg" xmlns:xlink="http://www.w3.org/1999/xlink" x="0px" y="0px"
	 viewBox="0 0 68.9 68.9" style="enable-background:new 0 0 68.9 68.9;" xml:space="preserve">
<style type="text/css">
	.st0{fill:#33AFD1;}
	.st1{fill:#FFFFFF;}
</style>
<circle class="st0" cx="34.4" cy="34.4" r="34.4"/>
<g>
	<path class="st1" d="M52.1,29.7h-1.3v-1.9c0-3-2.5-5.4-5.5-5.4h-8.9V18c1.2-0.7,2-1.9,2-3.4c0-2.2-1.8-3.9-3.9-3.9
		c-2.2,0-3.9,1.8-3.9,3.9c0,1.5,0.8,2.7,2,3.4v4.5h-8.9c-3,0-5.4,2.4-5.4,5.4v1.9h-1.4c-1.7,0-3.1,1.4-3.1,3.1v6.6
		c0,1.7,1.4,3.1,3.1,3.1h1.4v1.9c0,3,2.4,5.4,5.4,5.4h2.5v2.9c0,1.7,1.4,3.1,3.1,3.1h10.5c1.7,0,3.1-1.4,3.1-3.1v-2.9h2.6
		c3,0,5.5-2.4,5.5-5.4v-1.9h1.3c1.7,0,3.1-1.4,3.1-3.1v-6.6C55.1,31.1,53.8,29.7,52.1,29.7L52.1,29.7z M22.5,31.8
		c0-2,1.6-3.6,3.6-3.6c2,0,3.6,1.6,3.6,3.6c0,2-1.6,3.6-3.6,3.6C24.1,35.4,22.5,33.8,22.5,31.8L22.5,31.8z M39.3,44.9h-9.8
		c-1.6,0-2.9-1.3-2.9-2.9c0-1.6,1.3-2.9,2.9-2.9h9.8c1.6,0,2.9,1.3,2.9,2.9C42.3,43.6,40.9,44.9,39.3,44.9L39.3,44.9z M42.8,35.4
		c-2,0-3.6-1.6-3.6-3.6c0-2,1.6-3.6,3.6-3.6c2,0,3.6,1.6,3.6,3.6C46.3,33.8,44.7,35.4,42.8,35.4L42.8,35.4z M42.8,35.4"/>
</g>
</svg>
