<?xml version="1.0" encoding="utf-8"?>
<!-- Generator: Adobe Illustrator 22.0.0, SVG Export Plug-In . SVG Version: 6.00 Build 0)  -->
<svg version="1.1" id="Слой_1" xmlns="http://www.w3.org/2000/svg" xmlns:xlink="http://www.w3.org/1999/xlink" x="0px" y="0px"
	 viewBox="0 0 32 37" style="enable-background:new 0 0 32 37;" xml:space="preserve">
<g>
	<g>
		<path d="M30.5,15.5l-0.6,0v9.4h0.6c0.9,0,1.6-0.7,1.6-1.6V17C32,16.2,31.3,15.5,30.5,15.5z M0,17.1v6.1c0,0.9,0.7,1.7,1.6,1.7h0.6
			v-9.4l-0.6,0C0.7,15.5,0,16.2,0,17.1z M28.4,16.8c0-0.7-0.1-1.4-0.2-2.1c0-0.2-0.1-0.5-0.2-0.7v-1.8C28.1,5.5,22.7,0,16,0
			S4,5.5,4,12.3v1.2C4,13.6,3.9,13.8,3.9,14c-0.2,0.9-0.4,1.9-0.4,2.8v11.6c0,0.5,0.4,0.8,0.8,0.8h2.5c0.8,4.4,4.7,7.8,9.3,7.8
			c3.6,0,6.8-2.1,8.4-5.2c2.7-0.2,4.9-2.5,4.9-5.3h-0.9V16.8z M22.9,29.4h-5.9c-0.7,0-1.2,0.6-1.2,1.2c0,0.7,0.5,1.2,1.2,1.2h4.6
			c-1.3,1.6-3.3,2.7-5.5,2.7c-3.9,0-7-3.2-7-7.2v-7.9c0.9-0.6,2.5-1.7,3.6-3.2c1.7,1.4,5.1,3.5,10.5,3.7v7.3h0
			C23.1,28,23,28.7,22.9,29.4z M17.8,5.9h-3.6c-2.7,0-5.2,1-7,2.7C8.5,5,12,2.5,16,2.5c4.1,0,7.7,2.7,9,6.4
			C23.2,7.1,20.6,5.9,17.8,5.9z M13.6,21.8h-1.9c-0.7,0-1.2,0.6-1.2,1.2c0,0.7,0.5,1.2,1.2,1.2h1.9c0.7,0,1.2-0.6,1.2-1.2
			C14.8,22.4,14.2,21.8,13.6,21.8z M20.4,21.8h-1.9c-0.7,0-1.2,0.6-1.2,1.2c0,0.7,0.5,1.2,1.2,1.2h1.9c0.7,0,1.2-0.6,1.2-1.2
			C21.6,22.4,21,21.8,20.4,21.8z"/>
	</g>
</g>
</svg>
