<?xml version="1.0" encoding="utf-8"?>
<!-- Generator: Adobe Illustrator 22.0.0, SVG Export Plug-In . SVG Version: 6.00 Build 0)  -->
<svg version="1.1" id="Слой_1" xmlns="http://www.w3.org/2000/svg" xmlns:xlink="http://www.w3.org/1999/xlink" x="0px" y="0px"
	 viewBox="0 0 36 36" style="enable-background:new 0 0 36 36;" xml:space="preserve">
<path d="M35.9,16c-0.1-0.5-0.6-0.9-1.2-0.9c-1.6,0-3.1-1-3.7-2.5c-0.6-1.5-0.2-3.3,1-4.5c0.4-0.4,0.4-0.9,0.1-1.4
	c-0.8-1.1-1.8-2-2.9-2.9c-0.4-0.3-1-0.3-1.4,0.1c-1.1,1.2-3,1.6-4.5,1c-1.5-0.7-2.5-2.2-2.4-3.9c0-0.5-0.4-1-0.9-1.1
	c-1.3-0.2-2.7-0.2-4,0c-0.5,0.1-0.9,0.5-0.9,1c0.1,1.7-0.9,3.2-2.5,3.8c-1.5,0.6-3.4,0.2-4.5-1C7.9,3.6,7.3,3.5,6.9,3.9
	C5.8,4.7,4.8,5.7,4,6.7c-0.3,0.4-0.3,1,0.1,1.4c1.3,1.1,1.7,2.9,1,4.5C4.5,14.1,2.9,15,1.2,15c-0.6,0-1,0.4-1,0.9
	C0,17.3,0,18.6,0.1,20c0.1,0.5,0.7,0.9,1.2,0.9c1.6,0,3.1,0.9,3.7,2.5c0.6,1.5,0.2,3.3-1,4.5c-0.4,0.4-0.4,0.9-0.1,1.4
	c0.8,1.1,1.8,2,2.8,2.9c0.4,0.3,1,0.3,1.4-0.1c1.1-1.2,3-1.6,4.5-1c1.6,0.6,2.5,2.2,2.4,3.9c0,0.5,0.4,1,0.9,1.1
	C16.6,36,17.3,36,18,36c0.7,0,1.3,0,2-0.1c0.5-0.1,0.9-0.5,0.9-1c-0.1-1.7,0.9-3.2,2.5-3.8c1.5-0.6,3.4-0.2,4.5,1
	c0.4,0.4,0.9,0.4,1.4,0.1c1.1-0.8,2.1-1.8,2.9-2.9c0.3-0.4,0.3-1-0.1-1.4c-1.3-1.1-1.7-2.9-1-4.5C31.5,22,33,21,34.6,21l0.2,0
	c0.5,0,1-0.4,1.1-0.9C36,18.7,36,17.4,35.9,16z M18,28.4c-5.7,0-10.4-4.6-10.4-10.4S12.3,7.6,18,7.6S28.4,12.3,28.4,18
	c0,1.9-0.5,3.8-1.5,5.3l-4.5-4.5c0.3-0.8,0.5-1.6,0.5-2.5c0-1.7-0.7-3.3-1.9-4.5c-1.2-1.2-2.8-1.9-4.5-1.9c-0.6,0-1.1,0.1-1.7,0.2
	c-0.2,0.1-0.4,0.3-0.5,0.5c-0.1,0.2,0,0.5,0.2,0.7c0,0,2.2,2.3,3,3c0.1,0.1,0.1,0.3,0.1,0.3l0,0c-0.1,0.8-0.2,1.8-0.3,2.2
	c0,0,0,0,0,0c0,0,0,0,0,0.1c-0.4,0.1-1.4,0.3-2.2,0.3l0,0l0,0c0,0,0,0,0,0c-0.1,0-0.2,0-0.3-0.1c-0.8-0.8-2.9-2.9-2.9-2.9
	c-0.2-0.2-0.4-0.2-0.5-0.2c-0.3,0-0.6,0.2-0.7,0.5c-0.6,2.2,0,4.6,1.6,6.2c1.2,1.2,2.8,1.9,4.5,1.9c0.9,0,1.7-0.2,2.5-0.5l4.6,4.6
	C22,27.8,20.1,28.4,18,28.4z"/>
</svg>
