<?xml version="1.0" encoding="utf-8"?>
<!-- Generator: Adobe Illustrator 22.0.0, SVG Export Plug-In . SVG Version: 6.00 Build 0)  -->
<svg version="1.1" id="Слой_1" xmlns="http://www.w3.org/2000/svg" xmlns:xlink="http://www.w3.org/1999/xlink" x="0px" y="0px"
	 viewBox="0 0 40 26" style="enable-background:new 0 0 40 26;" xml:space="preserve">
<style type="text/css">
	.st0{fill-rule:evenodd;clip-rule:evenodd;}
</style>
<path class="st0" d="M40,1.3l-0.3,2.5c-0.1,0.8-0.2,1.6-0.4,2.4l-0.1,0.5c-0.4,2.3-0.7,4.2-1.1,5.9c-0.4,1.9-0.9,4-1.5,6.1
	c-0.4,1.2-0.7,2.2-1.1,3.1c-0.2,0.6-0.5,1.1-0.7,1.6c-0.3,0.5-0.6,1-1.1,1.6c-0.2,0.3-0.5,0.5-0.8,0.7c-0.2,0.2-0.6,0.3-1.1,0.4
	c-0.4,0.1-0.8,0-1.1-0.1c-0.3-0.1-0.6-0.3-0.9-0.5c-0.6-0.5-1-1-1.3-1.4c-0.4-0.5-0.7-1.1-0.9-1.5c-0.6-1.1-1-2.2-1.4-3
	c-0.4-1-0.8-2.1-1.2-3c-0.2-0.6-0.4-1.2-0.6-1.8c-0.5-1.4-1-2.8-1.5-4.1c-0.4-1.1-0.8-1.9-1.2-2.6c0-0.1-0.1-0.2-0.2-0.3
	c0,0,0-0.1-0.1-0.1c0,0,0-0.1-0.1-0.1c-0.9-1.3-2-1.2-2.8,0.9c-0.2,0.4-0.3,0.8-0.5,1.3L17.5,11c-0.4,1.1-0.7,2.1-1.1,3
	c-0.5,1.2-0.9,2-1.4,2.8c-0.5,0.7-1.1,1.7-2,2.4c-0.5,0.4-0.9,0.6-1.4,0.8c-0.5,0.2-1,0.2-1.6,0.1c-0.5-0.1-0.9-0.3-1.4-0.5
	c-0.4-0.2-0.8-0.5-1.1-0.9c-0.6-0.6-1.2-1.3-1.7-2.2c-0.5-0.7-0.9-1.5-1.3-2.3c-0.8-1.7-1.5-3.4-1.9-4.6c-1.1-3.1-1.9-5.9-2.4-8
	C0,1.4,0,1.3,0,1.3C0,1.1,0,1,0.1,1c0.1-0.1,0.2-0.1,0.3-0.1c0,0,0.1,0,0.1,0C0.6,1,0.7,1,0.7,1.2c0.8,2.1,1.6,4.5,3,7.4
	c0.7,1.5,1.4,2.9,2.2,4.2c0.4,0.7,0.9,1.4,1.3,2c0.6,0.7,1,1.2,1.5,1.6c0.6,0.5,1.1,0.7,1.6,0.8c0.5,0,0.9-0.2,1.4-0.6
	c0.5-0.5,1-1.2,1.3-1.8c0.4-0.7,0.7-1.5,1.1-2.4c0.3-0.8,0.6-1.7,0.9-2.7l0.5-1.5c0.2-0.5,0.4-1,0.6-1.5C16.3,6,16.5,5.4,16.7,5
	c0,0,0,0,0,0c0,0,0,0,0,0c0,0,0,0,0,0l0,0c0.2-0.5,0.6-1,1-1.5c0.2-0.3,0.5-0.5,0.8-0.7c0.3-0.3,0.7-0.4,1.1-0.5
	c0.4-0.1,0.8-0.1,1.2,0c0.3,0.1,0.7,0.3,1,0.5c0.6,0.5,1,1,1.3,1.4c0.3,0.4,0.6,0.9,0.9,1.5c0.6,1.1,1,2.1,1.4,3
	c0.1,0.1,0.1,0.3,0.2,0.4c0.6,1.4,1.1,2.8,1.6,4.2l0.5,1.3c0.7,1.8,1.4,3.8,2.3,5.5c0.2,0.5,0.5,0.8,0.6,1.1c1.1,1.7,1.8,0.2,2-0.2
	c0.2-0.3,0.4-0.7,0.6-1.2c0.3-0.8,0.7-1.6,1-2.7c0.6-1.7,1.1-3.7,1.6-5.7c0.5-1.9,0.9-3.8,1.3-5.7l0.1-0.4c0.2-0.8,0.4-1.6,0.5-2.4
	l0.5-2.3l0-0.2C38.3,0.3,38.6,0,39.1,0C39.6,0,40,0.4,40,0.9c0,0,0,0,0,0L40,1.3z"/>
</svg>
