<?xml version="1.0" encoding="utf-8"?>
<!-- Generator: Adobe Illustrator 22.0.0, SVG Export Plug-In . SVG Version: 6.00 Build 0)  -->
<svg version="1.1" id="Слой_1" xmlns="http://www.w3.org/2000/svg" xmlns:xlink="http://www.w3.org/1999/xlink" x="0px" y="0px"
	 viewBox="0 0 37.5 36" style="enable-background:new 0 0 37.5 36;" xml:space="preserve">
<g>
	<path d="M8.4,10.3h10.4c0.6,0,1.2-0.5,1.2-1.2c0-0.6-0.5-1.2-1.2-1.2H8.4C7.7,8,7.2,8.5,7.2,9.2C7.2,9.8,7.7,10.3,8.4,10.3z"/>
	<path d="M8.4,15.1h20.8c0.6,0,1.2-0.5,1.2-1.2c0-0.6-0.5-1.2-1.2-1.2H8.4c-0.6,0-1.2,0.5-1.2,1.2C7.2,14.6,7.7,15.1,8.4,15.1z"/>
	<path d="M30.4,18.8c0-0.6-0.5-1.2-1.2-1.2H8.4c-0.6,0-1.2,0.5-1.2,1.2c0,0.6,0.5,1.2,1.2,1.2h20.8C29.8,19.9,30.4,19.4,30.4,18.8z"
		/>
	<path d="M32.4,0L5.1,0.1C2.3,0.1,0,2.4,0,5.2v16.9c0,2.8,2.3,5.1,5.1,5.1h4.5v7.6c0,0.5,0.3,0.9,0.8,1.1c0.1,0.1,0.3,0.1,0.4,0.1
		c0.3,0,0.6-0.1,0.9-0.4l7.7-8.4l13.1-0.1c2.8,0,5.1-2.3,5.1-5V5C37.5,2.3,35.2,0,32.4,0z M10.8,24.9H5.1c-1.5,0-2.8-1.2-2.8-2.8
		V5.2c0-1.5,1.2-2.8,2.8-2.8l27.3-0.1c1.5,0,2.8,1.2,2.8,2.8V22c0,1.5-1.2,2.8-2.8,2.8l-13.7,0.1c-0.3,0-0.6,0.1-0.9,0.4l-6,6.6V26
		C11.9,25.4,11.4,24.9,10.8,24.9z"/>
</g>
</svg>
