<?xml version="1.0" encoding="utf-8"?>
<!-- Generator: Adobe Illustrator 22.0.0, SVG Export Plug-In . SVG Version: 6.00 Build 0)  -->
<svg version="1.1" id="Слой_1" xmlns="http://www.w3.org/2000/svg" xmlns:xlink="http://www.w3.org/1999/xlink" x="0px" y="0px"
	 viewBox="0 0 32 29" style="enable-background:new 0 0 32 29;" xml:space="preserve">
<g>
	<g>
		<path d="M20.6,26.5h-3.4v-3h-2.4v3h-3.4c-0.7,0-1.2,0.6-1.2,1.2c0,0.7,0.5,1.2,1.2,1.2h9.2c0.7,0,1.2-0.6,1.2-1.2
			C21.8,27.1,21.3,26.5,20.6,26.5z M0,19.5V21c0,0.5,0.4,1,1,1H31c0.5,0,1-0.4,1-1v-1.5H0z M16,4.2c2.6,0,5,0.7,7.1,2l0.8-1.1
			c0.3-0.4,0.8-0.4,1.1-0.2c0.4,0.3,0.4,0.8,0.2,1.1l-0.8,1.1c3.2,2.5,5.2,6.3,5.3,10.7H32V1c0-0.5-0.4-1-1-1H1C0.4,0,0,0.4,0,1
			v16.9h2.3C2.4,10.3,8.5,4.2,16,4.2z M23,17.3c-0.1-0.1-0.1-0.2-0.1-0.3c-0.3-1.8-1.2-3.3-2.5-4.3L18,16c0.4,0.3,0.7,0.8,0.9,1.3
			H23z M16,15.3c0.2,0,0.3,0,0.5,0l2.6-3.5c-0.9-0.5-2-0.7-3.1-0.7c-2,0-3.8,0.8-5.1,2.2c0,0,0,0,0,0c0,0.1-0.1,0.1-0.1,0.2
			c-0.8,1-1.4,2.2-1.6,3.5c0,0.1-0.1,0.2-0.1,0.3h4.1C13.5,16.1,14.7,15.3,16,15.3z M28.1,17.3c-0.2-3.6-2-6.7-4.6-8.8l-2.1,2.9
			c0.1,0.1,0.1,0.1,0.2,0.2c1.5,1.3,2.6,3.2,2.9,5.2c0,0.2,0,0.4-0.1,0.6H28.1z M6.2,10.9C6.2,10.9,6.2,10.9,6.2,10.9
			c-1.3,1.8-2.2,4-2.3,6.4h3.7c-0.1-0.2-0.2-0.4-0.1-0.6c0.2-1.3,0.8-2.6,1.6-3.7L6.2,10.9z M10.4,11.5c1.4-1.2,3-1.9,4.8-2V5.9
			c-3.1,0.2-5.9,1.6-7.9,3.7l2.9,2.1C10.2,11.7,10.3,11.6,10.4,11.5z M22.1,7.6c-1.6-0.9-3.4-1.5-5.3-1.6v3.6c1.1,0.1,2.2,0.4,3.2,1
			L22.1,7.6z"/>
	</g>
</g>
</svg>
