<?xml version="1.0" encoding="utf-8"?>
<!-- Generator: Adobe Illustrator 22.0.0, SVG Export Plug-In . SVG Version: 6.00 Build 0)  -->
<svg version="1.1" id="Layer_1" xmlns="http://www.w3.org/2000/svg" xmlns:xlink="http://www.w3.org/1999/xlink" x="0px" y="0px"
	 viewBox="0 0 909.2 220.3" style="enable-background:new 0 0 909.2 220.3;" xml:space="preserve">
<style type="text/css">
	.st0{fill:#ADB0C2;}
	.st1{fill:url(#SVGID_1_);}
</style>
<g>
	<path class="st0" d="M412,90.4c32.5,0,56,24.1,56,56.6c0,2.2-0.3,6.2-0.6,8.4c-0.3,3.1-2.8,5.3-5.6,5.3h-89
		c1.2,20.7,19.5,40.2,41.4,40.2c13,0,23.5-4.9,30.6-9.3c4.3-2.5,6.2-4,8.7-0.6c1.9,2.5,3.4,4.6,5.3,7.1c2.2,2.8,3.4,4.6-1.2,8
		c-7.4,5.9-24.1,14.2-45.4,14.2c-37.4,0-60.6-29.4-60.6-64.9C351.4,120.4,374.6,90.4,412,90.4z M446.6,143.3
		c-0.9-17.9-15.8-34-34.6-34c-20.7,0-36.8,14.8-39,34H446.6z"/>
	<path class="st0" d="M502,6.6c0-3.1,2.8-5.9,5.9-5.9h9.6c3.1,0,5.9,2.8,5.9,5.9v91.8c0,0,12.7-8,33.1-8c37.1,0,59.4,28.4,59.4,64.6
		c0,35.6-24.7,65.2-56.3,65.2c-23.2,0-38-16.4-38-16.4l-1.9,8.3c-0.6,2.8-2.5,4.9-5.3,4.9h-6.5c-3.1,0-5.9-2.8-5.9-5.9V6.6z
		 M557.3,200.8c22.6,0,36.8-21.3,36.8-45.4c0-24.7-13.6-44.2-40.5-44.2c-17,0-30,7.4-30,7.4v61.8
		C523.6,180.4,535.1,200.8,557.3,200.8z"/>
	<path class="st0" d="M646.4,21.8c0-8.3,6.5-14.8,14.5-14.8c8.3,0,14.8,6.5,14.8,14.8c0,8-6.5,14.5-14.8,14.5
		C652.9,36.3,646.4,29.8,646.4,21.8z M650.7,99.4c0-3.1,2.8-5.9,5.9-5.9h9.6c3.1,0,5.9,2.8,5.9,5.9v111.9c0,3.1-2.8,5.9-5.9,5.9
		h-9.6c-3.1,0-5.9-2.8-5.9-5.9V99.4z"/>
	<path class="st0" d="M715.9,99.4c0-3.1,2.8-5.9,5.9-5.9h5.9c2.8,0,4.3,1.2,4.9,3.7l2.8,9.6c0,0,14.5-16.4,40.2-16.4
		c18.2,0,31.5,7.1,39.6,20.1c1.5-1.2,21.3-20.1,46.1-20.1c35.9,0,47.9,23.5,47.9,55.6v65.2c0,3.1-2.8,5.9-5.9,5.9h-9.9
		c-3.1,0-5.9-2.8-5.9-5.9V146c0-23.2-9.9-34.9-27.8-34.9c-20.1,0-33.4,13.3-37.7,17.3c0.9,5.3,1.5,11.1,1.5,17.6v65.2
		c0,3.1-2.8,5.9-5.9,5.9h-9.9c-3.1,0-5.9-2.8-5.9-5.9V146c0-23.5-10.5-34.9-29.4-34.9c-21.9,0-35.2,17.6-35.2,17.6v82.5
		c0,3.1-2.8,5.9-5.9,5.9h-9.6c-3.1,0-5.9-2.8-5.9-5.9V99.4H715.9z"/>
</g>
<linearGradient id="SVGID_1_" gradientUnits="userSpaceOnUse" x1="-2" y1="191.8183" x2="178.3452" y2="191.8183" gradientTransform="matrix(1 0 0 -1 2 280)">
	<stop  offset="0" style="stop-color:#ADB0C2"/>
	<stop  offset="1" style="stop-color:#5E6287"/>
</linearGradient>
<path class="st1" d="M141.3,41.6c-2.1,3.9-4,8.4-6.1,13.3c-1.8,4.3-3.4,8.7-4.9,12.9l-4.1,12.8c-2.5,8.4-5,15.8-7.6,22.5
	c-2.8,7.4-5.9,14.1-9.1,20c-2.5,4.5-6.3,10.7-10.9,14.9c-4.1,3.6-7.7,5.1-11.9,5.1c-4.1-0.1-9-2.3-13.8-6.3
	c-3.8-3.1-7.8-7.4-12.5-13.5c-3.6-4.8-7.3-10.3-11-16.4c-6.1-10.5-12.2-22.2-18.2-35c-11.2-24-18.5-44.7-25-62.2l0,0
	c-0.3-1-1-1.7-1.9-2.1C3.9,7.5,3.5,7.4,3.1,7.4c-0.9,0-1.7,0.2-2.3,0.8c-0.5,0.6-1,1.4-0.8,2.4c0.2,0.7,0.3,1.3,0.5,2
	C5.1,30.8,11.6,54.3,20.9,80c3.9,10.6,9.3,24.7,16.4,38.9c3.6,7.2,7.2,13.6,11,19.5c4.7,7.4,9.4,13.2,14.6,18.2
	c3.2,3.1,6.4,5.5,9.7,7.5c4.1,2.4,8,3.9,11.8,4.5c4.3,0.7,8.9,0.4,13.1-1c4-1.3,7.9-3.4,11.9-6.5c7.9-6.3,13.3-14.2,17.2-20.4
	c4.1-6.6,7.8-13.8,11.9-23.5c3.1-7.4,6.2-15.5,9.3-24.8l4-11.4c1.4-3.8,2.9-7.3,4.3-10.8c7.1-18.5,16.6-19.3,24.2-6.7
	C166.4,38,141.3,41.6,141.3,41.6z"/>
<path class="st0" d="M329.5,0c-3.6,0-6.5,2.5-7.6,5.9l-0.4,1.8L317.6,27c-1.2,6.4-2.7,13.2-4.2,19.9l-0.7,3.4
	c-3.5,15.9-7.2,32-11.2,47.9c-4.2,17-8.9,33.1-13.7,47.7c-2.8,8.5-5.7,16-8.6,22.3c-1.6,3.5-3.2,6.8-5,9.7
	c-1.8,2.9-7.8,15.6-16.9,1.3c-1.6-2.5-3.4-5.5-5.4-9.3c-7.2-14.2-13.6-31.5-19.1-46.5l-4.1-11.2c-4.2-11.6-8.5-23.5-13.3-35.4
	c-0.5-1.2-1-2.4-1.5-3.6c-3.1-7.5-6.9-16.3-11.6-25.3c-2.6-4.9-5.1-8.9-7.6-12.6c-2.7-3.8-6-8.1-11.1-12c-2.8-2-5.5-3.5-8.3-4.3
	c-3.2-1-6.8-1.1-10-0.4c-3,0.7-6,2-8.9,4.1c-2.7,1.9-4.7,4-6.6,6.1c-3.9,4.6-6.6,9.1-8.7,13c0,0,24.4-3.4,39,21.5
	c0.2,0.3,0.3,0.5,0.5,0.8c0.4,0.8,0.9,1.6,1.3,2.4c2.9,6,6.3,12.9,10,22.1c4.4,11,8.6,22.3,13,34.3c1.8,4.9,3.6,9.8,5.4,14.7
	c2.8,7.5,6.2,16.4,9.8,25.2c2.8,6.9,6.7,16.1,11.6,25.2c1.9,3.4,4.4,8,7.6,12.5c2.6,3.7,6,8.1,10.8,12c2.6,2,5.2,3.5,7.9,4.5
	c3.1,1.2,6.6,1.6,9.7,1.1c3.9-0.5,7.1-2.1,9.1-3.4c2.5-1.6,4.9-3.6,6.8-5.7c4.2-4.5,6.9-9.1,9.2-13.1c2.2-4,4.3-8.3,6.3-13.1
	c3.2-7.8,6.2-16,9.2-26c5.4-17.7,9.3-35,12.7-51.2c3.1-14.5,6-30.3,9.3-49.7l0.7-4c1.1-6.8,2.2-13.4,3.2-20.3l2.9-20.7l0.4-2.8
	c0-0.1,0-0.1,0-0.2C337.4,3.7,333.9,0,329.5,0z"/>
</svg>
