<?xml version="1.0" encoding="utf-8"?>
<!-- Generator: Adobe Illustrator 22.0.0, SVG Export Plug-In . SVG Version: 6.00 Build 0)  -->
<svg version="1.1" id="Слой_1" xmlns="http://www.w3.org/2000/svg" xmlns:xlink="http://www.w3.org/1999/xlink" x="0px" y="0px"
	 viewBox="0 0 20 20" style="enable-background:new 0 0 20 20;" xml:space="preserve">
<style type="text/css">
	.st0{clip-path:url(#SVGID_2_);fill:#88BC17;}
	.st1{fill:#FFFFFF;}
</style>
<g>
	<g>
		<defs>
			<rect id="SVGID_1_" width="20" height="20"/>
		</defs>
		<clipPath id="SVGID_2_">
			<use xlink:href="#SVGID_1_"  style="overflow:visible;"/>
		</clipPath>
		<path class="st0" d="M10.2,0C4.8,0,0.3,4.4,0.3,9.8c0,1.7,0.4,3.4,1.3,4.9L0,19.6c0,0.1,0,0.2,0.1,0.3C0.2,20,0.2,20,0.3,20
			c0,0,0.1,0,0.1,0l5.3-1.4c1.4,0.7,2.9,1.1,4.5,1.1c5.4,0,9.8-4.4,9.8-9.8C20,4.4,15.6,0,10.2,0L10.2,0z"/>
	</g>
</g>
<path class="st1" d="M12.5,3.9H7.9c-0.7,0-1.3,0.6-1.3,1.3v9c0,0.7,0.6,1.3,1.3,1.3h4.6c0.7,0,1.3-0.6,1.3-1.3v-9
	C13.7,4.5,13.2,3.9,12.5,3.9z M10.2,15c-0.4,0-0.7-0.3-0.7-0.7c0-0.4,0.3-0.7,0.7-0.7c0.4,0,0.7,0.3,0.7,0.7
	C10.9,14.7,10.6,15,10.2,15z M12.6,12.6c0,0.2-0.2,0.4-0.4,0.4h-4c-0.2,0-0.4-0.2-0.4-0.4V5.1c0-0.2,0.2-0.4,0.4-0.4h4
	c0.2,0,0.4,0.2,0.4,0.4V12.6z"/>
</svg>
