<?xml version="1.0" encoding="utf-8"?>
<!-- Generator: Adobe Illustrator 22.0.0, SVG Export Plug-In . SVG Version: 6.00 Build 0)  -->
<svg version="1.1" id="Слой_1" xmlns="http://www.w3.org/2000/svg" xmlns:xlink="http://www.w3.org/1999/xlink" x="0px" y="0px"
	 viewBox="0 0 100 100" style="enable-background:new 0 0 100 100;" xml:space="preserve">
<g>
	<path d="M49.8-155C-63.3-155-155-63.3-155,49.8c0,113.1,91.7,204.8,204.8,204.8c113.1,0,204.8-91.7,204.8-204.8
		C254.6-63.3,162.9-155,49.8-155L49.8-155z M157.9,143.8l-16.4,16.4c-2.9,2.9-11.5,4.8-11.8,4.8c-51.9,0.4-101.8-19.9-138.5-56.6
		c-36.8-36.8-57.2-87-56.6-139c0,0,1.9-8.4,4.8-11.3l16.4-16.4c6-6,17.5-8.7,25.6-6.1l3.5,1.2c8.1,2.7,16.5,11.6,18.7,19.8l8.3,30.3
		c2.2,8.2-0.8,19.9-6.8,25.9L-5.9,23.8c10.8,39.8,42,71,81.8,81.8l10.9-10.9c6-6,17.7-9,25.9-6.8l30.3,8.3
		c8.2,2.3,17.1,10.7,19.8,18.7l1.2,3.5C166.7,126.3,163.9,137.9,157.9,143.8L157.9,143.8z M157.9,143.8"/>
</g>
</svg>
