<?xml version="1.0" encoding="utf-8"?>
<!-- Generator: Adobe Illustrator 22.0.0, SVG Export Plug-In . SVG Version: 6.00 Build 0)  -->
<svg version="1.1" id="Слой_1" xmlns="http://www.w3.org/2000/svg" xmlns:xlink="http://www.w3.org/1999/xlink" x="0px" y="0px"
	 viewBox="0 0 216 240" style="enable-background:new 0 0 216 240;" xml:space="preserve">
<style type="text/css">
	.st0{fill:url(#Combined-Shape_1_);}
</style>
<g id="Market">
	
		<linearGradient id="Combined-Shape_1_" gradientUnits="userSpaceOnUse" x1="-389.198" y1="618.8969" x2="-388.1817" y2="618.9448" gradientTransform="matrix(216.004 0 0 -239.999 84066.5625 148660.375)">
		<stop  offset="0" style="stop-color:#8200FF"/>
		<stop  offset="1" style="stop-color:#00BCC3"/>
	</linearGradient>
	<path id="Combined-Shape" class="st0" d="M85.7,6.1C92.6,2,100.3,0,108,0s15.4,2,22.3,6.1l63.9,37.6c13.5,7.9,21.7,22.4,21.7,38
		v76.7c0,15.6-8.3,30.1-21.7,38l-63.9,37.6c-13.8,8.1-30.9,8.1-44.7,0l-63.9-37.6C8.3,188.4,0,173.9,0,158.3V81.7
		c0-15.6,8.3-30.1,21.7-38L85.7,6.1z M192.9,92.5c0-0.5-0.1-1-0.4-1.5c-0.8-1.4-2.6-1.9-4.1-1.1v0L135,120.8
		c-11.7,7.7-19.4,20.6-19.4,32.9v40.5c0,2,0.7,3.9,1.7,5.6c1.9,3.4,5.6,5.6,9.7,5.6c2.6,0,4.2-0.5,6.6-1.9l34.9-20.1
		c21-12,23.8-16.3,24.5-38.7L192.9,92.5L192.9,92.5z M74.1,111.2L39.7,91.4c-1.7-1-3.6-1.5-5.5-1.5c-3.8,0-7.5,2-9.5,5.5
		c-1.2,2.2-1.7,3.8-1.7,6.5v42.4c0.1,21.2,3,25.8,20.9,36.8l44.3,25.6l0,0c0.4,0.2,0.9,0.4,1.4,0.4c1.6,0,2.9-1.3,2.9-2.9v0l0-60.6
		C91.7,129.9,84.4,117.2,74.1,111.2z M168.1,76.2c1.8-1,3.1-2.5,4.1-4.1c1.9-3.4,2.1-7.7,0-11.3c-1.3-2.2-2.5-3.4-5-4.8l-34.8-20.1
		c-21-12.2-26.4-12.2-46.1-1.5L40.9,60.6v0c-0.4,0.3-0.8,0.6-1.1,1.1C39,63.1,39.5,65,41,65.8l53.8,30.8c12.6,6.2,27.6,6.2,38.2,0
		L168.1,76.2z"/>
</g>
</svg>
